PathFileType	4	(X/Y/Z)	E:/New_biomech_experiments/2 Elbow flexion/Shreyas_pp_27_6_24_t02.trc	
DataRate	CameraRate	NumFrames	NumMarkers	Units	OrigDataRate	OrigDataStartFrame	OrigNumFrames	
120.00	120.00	137	3	m	120.00	5166	5903	
Frame#	Time	r_humerus_epicondyle			r_acromion			r_radius_styloid			
		X1	Y1	Z1	X2	Y2	Z2	X3	Y3	Z3	

5166	43.042	-0.04575	0.47714	0.25306	0.00364	0.81683	0.21166	-0.01915	0.21680	0.29492 
5167	43.050	-0.04514	0.47710	0.25294	0.00364	0.81682	0.21165	-0.01890	0.21677	0.29507 
5168	43.058	-0.04452	0.47705	0.25282	0.00364	0.81683	0.21163	-0.01866	0.21676	0.29522 
5169	43.067	-0.04391	0.47701	0.25269	0.00365	0.81684	0.21161	-0.01842	0.21675	0.29536 
5170	43.075	-0.04329	0.47697	0.25255	0.00366	0.81685	0.21159	-0.01818	0.21676	0.29550 
5171	43.083	-0.04268	0.47693	0.25241	0.00368	0.81688	0.21156	-0.01795	0.21678	0.29562 
5172	43.092	-0.04207	0.47691	0.25228	0.00371	0.81691	0.21153	-0.01771	0.21680	0.29574 
5173	43.100	-0.04145	0.47689	0.25214	0.00376	0.81695	0.21150	-0.01747	0.21684	0.29583 
5174	43.108	-0.04084	0.47689	0.25201	0.00381	0.81699	0.21146	-0.01723	0.21688	0.29592 
5175	43.117	-0.04024	0.47690	0.25189	0.00387	0.81704	0.21142	-0.01700	0.21693	0.29598 
5176	43.125	-0.03965	0.47692	0.25177	0.00395	0.81710	0.21137	-0.01676	0.21699	0.29604 
5177	43.133	-0.03909	0.47694	0.25167	0.00403	0.81716	0.21132	-0.01652	0.21705	0.29608 
5178	43.142	-0.03855	0.47697	0.25156	0.00413	0.81722	0.21126	-0.01627	0.21711	0.29610 
5179	43.150	-0.03802	0.47701	0.25146	0.00423	0.81728	0.21120	-0.01602	0.21717	0.29610 
5180	43.158	-0.03750	0.47705	0.25136	0.00434	0.81735	0.21114	-0.01577	0.21723	0.29609 
5181	43.167	-0.03700	0.47709	0.25125	0.00446	0.81743	0.21107	-0.01551	0.21729	0.29606 
5182	43.175	-0.03651	0.47714	0.25113	0.00458	0.81750	0.21100	-0.01525	0.21735	0.29602 
5183	43.183	-0.03603	0.47719	0.25101	0.00471	0.81759	0.21093	-0.01498	0.21742	0.29596 
5184	43.192	-0.03557	0.47725	0.25088	0.00483	0.81768	0.21086	-0.01472	0.21748	0.29588 
5185	43.200	-0.03513	0.47731	0.25075	0.00495	0.81777	0.21079	-0.01446	0.21755	0.29578 
5186	43.208	-0.03471	0.47738	0.25062	0.00506	0.81788	0.21072	-0.01420	0.21761	0.29567 
5187	43.217	-0.03431	0.47745	0.25049	0.00517	0.81798	0.21066	-0.01394	0.21768	0.29554 
5188	43.225	-0.03394	0.47752	0.25035	0.00528	0.81809	0.21060	-0.01369	0.21775	0.29540 
5189	43.233	-0.03359	0.47760	0.25021	0.00537	0.81820	0.21054	-0.01343	0.21782	0.29524 
5190	43.242	-0.03324	0.47768	0.25008	0.00546	0.81830	0.21049	-0.01317	0.21789	0.29508 
5191	43.250	-0.03292	0.47775	0.24994	0.00555	0.81840	0.21044	-0.01291	0.21795	0.29492 
5192	43.258	-0.03260	0.47782	0.24981	0.00564	0.81850	0.21039	-0.01264	0.21800	0.29476 
5193	43.267	-0.03231	0.47789	0.24968	0.00572	0.81858	0.21035	-0.01237	0.21806	0.29461 
5194	43.275	-0.03203	0.47794	0.24956	0.00580	0.81866	0.21031	-0.01210	0.21810	0.29447 
5195	43.283	-0.03176	0.47798	0.24946	0.00588	0.81872	0.21028	-0.01183	0.21814	0.29434 
5196	43.292	-0.03151	0.47801	0.24936	0.00596	0.81877	0.21024	-0.01156	0.21817	0.29423 
5197	43.300	-0.03126	0.47803	0.24927	0.00603	0.81882	0.21021	-0.01129	0.21819	0.29413 
5198	43.308	-0.03102	0.47804	0.24920	0.00612	0.81885	0.21017	-0.01102	0.21821	0.29405 
5199	43.317	-0.03078	0.47804	0.24914	0.00620	0.81887	0.21013	-0.01075	0.21821	0.29399 
5200	43.325	-0.03056	0.47804	0.24909	0.00629	0.81889	0.21010	-0.01049	0.21822	0.29394 
5201	43.333	-0.03034	0.47804	0.24904	0.00640	0.81890	0.21006	-0.01023	0.21822	0.29391 
5202	43.342	-0.03014	0.47803	0.24901	0.00651	0.81891	0.21002	-0.00998	0.21823	0.29389 
5203	43.350	-0.02995	0.47803	0.24898	0.00663	0.81891	0.20998	-0.00975	0.21823	0.29388 
5204	43.358	-0.02977	0.47802	0.24895	0.00676	0.81891	0.20994	-0.00954	0.21824	0.29389 
5205	43.367	-0.02960	0.47802	0.24893	0.00689	0.81891	0.20990	-0.00935	0.21825	0.29390 
5206	43.375	-0.02943	0.47802	0.24890	0.00704	0.81891	0.20986	-0.00917	0.21827	0.29392 
5207	43.383	-0.02926	0.47803	0.24887	0.00719	0.81892	0.20982	-0.00901	0.21829	0.29394 
5208	43.392	-0.02910	0.47805	0.24883	0.00735	0.81893	0.20978	-0.00886	0.21831	0.29396 
5209	43.400	-0.02896	0.47807	0.24879	0.00752	0.81894	0.20974	-0.00872	0.21834	0.29397 
5210	43.408	-0.02883	0.47809	0.24874	0.00769	0.81896	0.20970	-0.00858	0.21837	0.29397 
5211	43.417	-0.02871	0.47812	0.24870	0.00788	0.81897	0.20967	-0.00844	0.21840	0.29396 
5212	43.425	-0.02860	0.47814	0.24864	0.00807	0.81899	0.20964	-0.00830	0.21843	0.29394 
5213	43.433	-0.02849	0.47817	0.24859	0.00827	0.81901	0.20961	-0.00815	0.21846	0.29390 
5214	43.442	-0.02839	0.47821	0.24853	0.00848	0.81904	0.20958	-0.00799	0.21849	0.29384 
5215	43.450	-0.02829	0.47825	0.24846	0.00869	0.81906	0.20956	-0.00783	0.21853	0.29377 
5216	43.458	-0.02820	0.47830	0.24838	0.00890	0.81909	0.20954	-0.00765	0.21857	0.29368 
5217	43.467	-0.02814	0.47834	0.24829	0.00912	0.81912	0.20952	-0.00747	0.21862	0.29357 
5218	43.475	-0.02811	0.47839	0.24819	0.00935	0.81915	0.20950	-0.00729	0.21867	0.29344 
5219	43.483	-0.02812	0.47845	0.24808	0.00957	0.81918	0.20949	-0.00709	0.21873	0.29329 
5220	43.492	-0.02815	0.47850	0.24795	0.00981	0.81922	0.20948	-0.00689	0.21879	0.29314 
5221	43.500	-0.02820	0.47855	0.24782	0.01004	0.81925	0.20947	-0.00669	0.21885	0.29297 
5222	43.508	-0.02826	0.47861	0.24767	0.01028	0.81929	0.20946	-0.00650	0.21893	0.29280 
5223	43.517	-0.02833	0.47867	0.24751	0.01051	0.81933	0.20945	-0.00630	0.21901	0.29263 
5224	43.525	-0.02838	0.47874	0.24734	0.01074	0.81937	0.20945	-0.00611	0.21909	0.29245 
5225	43.533	-0.02843	0.47881	0.24717	0.01097	0.81942	0.20943	-0.00591	0.21918	0.29228 
5226	43.542	-0.02844	0.47888	0.24700	0.01118	0.81947	0.20942	-0.00572	0.21927	0.29211 
5227	43.550	-0.02843	0.47896	0.24683	0.01140	0.81952	0.20940	-0.00551	0.21936	0.29196 
5228	43.558	-0.02837	0.47903	0.24667	0.01162	0.81958	0.20937	-0.00530	0.21944	0.29181 
5229	43.567	-0.02827	0.47911	0.24653	0.01183	0.81963	0.20933	-0.00508	0.21953	0.29167 
5230	43.575	-0.02814	0.47919	0.24640	0.01206	0.81969	0.20929	-0.00483	0.21960	0.29155 
5231	43.583	-0.02797	0.47927	0.24629	0.01228	0.81975	0.20924	-0.00456	0.21968	0.29143 
5232	43.592	-0.02778	0.47935	0.24620	0.01252	0.81981	0.20918	-0.00426	0.21975	0.29132 
5233	43.600	-0.02757	0.47943	0.24611	0.01276	0.81988	0.20911	-0.00395	0.21982	0.29121 
5234	43.608	-0.02735	0.47951	0.24604	0.01301	0.81994	0.20904	-0.00362	0.21990	0.29110 
5235	43.617	-0.02713	0.47959	0.24596	0.01326	0.82002	0.20896	-0.00328	0.21997	0.29099 
5236	43.625	-0.02690	0.47967	0.24588	0.01351	0.82010	0.20889	-0.00295	0.22006	0.29088 
5237	43.633	-0.02667	0.47975	0.24580	0.01376	0.82019	0.20880	-0.00263	0.22015	0.29077 
5238	43.642	-0.02643	0.47984	0.24570	0.01400	0.82029	0.20872	-0.00232	0.22024	0.29067 
5239	43.650	-0.02618	0.47994	0.24561	0.01424	0.82040	0.20863	-0.00202	0.22034	0.29057 
5240	43.658	-0.02591	0.48004	0.24551	0.01448	0.82052	0.20853	-0.00172	0.22044	0.29048 
5241	43.667	-0.02562	0.48014	0.24542	0.01471	0.82065	0.20843	-0.00141	0.22054	0.29038 
5242	43.675	-0.02531	0.48025	0.24533	0.01494	0.82078	0.20833	-0.00110	0.22064	0.29029 
5243	43.683	-0.02498	0.48036	0.24524	0.01518	0.82092	0.20821	-0.00077	0.22074	0.29020 
5244	43.692	-0.02463	0.48046	0.24516	0.01542	0.82106	0.20809	-0.00043	0.22084	0.29011 
5245	43.700	-0.02427	0.48057	0.24508	0.01568	0.82119	0.20797	-0.00007	0.22094	0.29001 
5246	43.708	-0.02390	0.48067	0.24501	0.01594	0.82132	0.20784	0.00031	0.22103	0.28991 
5247	43.717	-0.02352	0.48077	0.24494	0.01621	0.82145	0.20771	0.00069	0.22112	0.28980 
5248	43.725	-0.02313	0.48087	0.24487	0.01648	0.82157	0.20759	0.00108	0.22120	0.28969 
5249	43.733	-0.02273	0.48096	0.24479	0.01676	0.82169	0.20747	0.00147	0.22129	0.28957 
5250	43.742	-0.02234	0.48104	0.24470	0.01705	0.82180	0.20735	0.00186	0.22137	0.28944 
5251	43.750	-0.02195	0.48113	0.24460	0.01734	0.82191	0.20725	0.00226	0.22144	0.28929 
5252	43.758	-0.02157	0.48121	0.24449	0.01764	0.82201	0.20715	0.00266	0.22152	0.28914 
5253	43.767	-0.02121	0.48129	0.24437	0.01793	0.82211	0.20705	0.00306	0.22159	0.28897 
5254	43.775	-0.02087	0.48136	0.24424	0.01822	0.82220	0.20696	0.00346	0.22167	0.28880 
5255	43.783	-0.02053	0.48143	0.24411	0.01850	0.82229	0.20687	0.00385	0.22174	0.28862 
5256	43.792	-0.02021	0.48150	0.24397	0.01878	0.82237	0.20678	0.00424	0.22181	0.28845 
5257	43.800	-0.01990	0.48156	0.24384	0.01904	0.82244	0.20669	0.00463	0.22187	0.28828 
5258	43.808	-0.01961	0.48162	0.24372	0.01930	0.82251	0.20660	0.00503	0.22192	0.28811 
5259	43.817	-0.01933	0.48167	0.24360	0.01955	0.82257	0.20651	0.00542	0.22196	0.28795 
5260	43.825	-0.01907	0.48171	0.24350	0.01981	0.82262	0.20641	0.00581	0.22200	0.28780 
5261	43.833	-0.01882	0.48175	0.24339	0.02006	0.82266	0.20631	0.00621	0.22204	0.28765 
5262	43.842	-0.01857	0.48178	0.24329	0.02030	0.82270	0.20622	0.00659	0.22207	0.28750 
5263	43.850	-0.01834	0.48182	0.24318	0.02055	0.82273	0.20612	0.00696	0.22209	0.28737 
5264	43.858	-0.01811	0.48184	0.24308	0.02078	0.82276	0.20602	0.00730	0.22211	0.28724 
5265	43.867	-0.01789	0.48187	0.24297	0.02101	0.82278	0.20592	0.00762	0.22213	0.28712 
5266	43.875	-0.01767	0.48188	0.24287	0.02123	0.82280	0.20582	0.00791	0.22214	0.28701 
5267	43.883	-0.01747	0.48190	0.24276	0.02144	0.82283	0.20571	0.00817	0.22215	0.28692 
5268	43.892	-0.01727	0.48190	0.24264	0.02165	0.82285	0.20560	0.00841	0.22216	0.28683 
5269	43.900	-0.01707	0.48191	0.24253	0.02185	0.82287	0.20549	0.00862	0.22217	0.28675 
5270	43.908	-0.01687	0.48191	0.24242	0.02205	0.82289	0.20538	0.00883	0.22217	0.28667 
5271	43.917	-0.01666	0.48191	0.24231	0.02224	0.82291	0.20526	0.00904	0.22217	0.28659 
5272	43.925	-0.01645	0.48191	0.24219	0.02243	0.82293	0.20514	0.00924	0.22218	0.28651 
5273	43.933	-0.01624	0.48191	0.24208	0.02263	0.82295	0.20501	0.00944	0.22218	0.28642 
5274	43.942	-0.01605	0.48191	0.24197	0.02284	0.82297	0.20489	0.00963	0.22219	0.28632 
5275	43.950	-0.01586	0.48191	0.24186	0.02305	0.82298	0.20476	0.00981	0.22220	0.28621 
5276	43.958	-0.01570	0.48190	0.24174	0.02327	0.82299	0.20463	0.00998	0.22221	0.28610 
5277	43.967	-0.01554	0.48190	0.24163	0.02350	0.82300	0.20450	0.01013	0.22222	0.28598 
5278	43.975	-0.01539	0.48190	0.24152	0.02372	0.82300	0.20438	0.01027	0.22223	0.28586 
5279	43.983	-0.01524	0.48189	0.24142	0.02395	0.82300	0.20426	0.01040	0.22224	0.28573 
5280	43.992	-0.01508	0.48188	0.24132	0.02417	0.82300	0.20416	0.01051	0.22225	0.28560 
5281	44.000	-0.01493	0.48188	0.24122	0.02439	0.82300	0.20405	0.01061	0.22225	0.28546 
5282	44.008	-0.01478	0.48187	0.24112	0.02460	0.82299	0.20396	0.01070	0.22225	0.28532 
5283	44.017	-0.01464	0.48186	0.24102	0.02481	0.82299	0.20387	0.01078	0.22224	0.28518 
5284	44.025	-0.01452	0.48186	0.24093	0.02503	0.82297	0.20378	0.01084	0.22222	0.28504 
5285	44.033	-0.01441	0.48185	0.24083	0.02525	0.82296	0.20371	0.01089	0.22220	0.28490 
5286	44.042	-0.01432	0.48183	0.24073	0.02547	0.82294	0.20363	0.01092	0.22217	0.28475 
5287	44.050	-0.01424	0.48181	0.24063	0.02571	0.82291	0.20356	0.01093	0.22214	0.28460 
5288	44.058	-0.01416	0.48179	0.24052	0.02594	0.82288	0.20350	0.01093	0.22211	0.28445 
5289	44.067	-0.01408	0.48176	0.24041	0.02618	0.82284	0.20343	0.01093	0.22207	0.28429 
5290	44.075	-0.01399	0.48172	0.24031	0.02641	0.82280	0.20337	0.01092	0.22202	0.28413 
5291	44.083	-0.01390	0.48168	0.24020	0.02664	0.82275	0.20331	0.01091	0.22197	0.28396 
5292	44.092	-0.01380	0.48164	0.24009	0.02686	0.82270	0.20325	0.01090	0.22191	0.28379 
5293	44.100	-0.01370	0.48159	0.23998	0.02708	0.82264	0.20319	0.01089	0.22185	0.28362 
5294	44.108	-0.01360	0.48153	0.23987	0.02731	0.82258	0.20313	0.01089	0.22178	0.28344 
5295	44.117	-0.01351	0.48147	0.23976	0.02754	0.82251	0.20307	0.01089	0.22170	0.28326 
5296	44.125	-0.01342	0.48141	0.23965	0.02776	0.82244	0.20300	0.01089	0.22163	0.28309 
5297	44.133	-0.01334	0.48135	0.23954	0.02800	0.82236	0.20293	0.01088	0.22155	0.28291 
5298	44.142	-0.01326	0.48128	0.23944	0.02822	0.82228	0.20286	0.01088	0.22147	0.28273 
5299	44.150	-0.01319	0.48121	0.23933	0.02845	0.82219	0.20279	0.01087	0.22139	0.28256 
5300	44.158	-0.01312	0.48114	0.23922	0.02866	0.82211	0.20272	0.01086	0.22131	0.28239 
5301	44.167	-0.01306	0.48107	0.23911	0.02887	0.82202	0.20266	0.01085	0.22124	0.28223 
5302	44.175	-0.01300	0.48099	0.23900	0.02908	0.82193	0.20259	0.01084	0.22116	0.28207 
